<?xml version="1.0" standalone="no"?>
<!DOCTYPE svg PUBLIC "-//W3C//DTD SVG 1.1//EN" "http://www.w3.org/Graphics/SVG/1.1/DTD/svg11.dtd" >
<svg xmlns="http://www.w3.org/2000/svg" xmlns:xlink="http://www.w3.org/1999/xlink" version="1.1">
<metadata></metadata>
<defs>
<font id="tensentype_xiaoxintijregular" horiz-adv-x="2048" vert-adv-y="2048" >
<font-face units-per-em="2048" ascent="1599" descent="-449" />
<missing-glyph horiz-adv-x="1024" />
<glyph horiz-adv-x="0" vert-adv-y="0" />
<glyph horiz-adv-x="682" />
<glyph unicode=" " horiz-adv-x="1024" vert-adv-y="2457" />
<glyph unicode="!" horiz-adv-x="636" vert-adv-y="2457" d="M101 69q0 49 61 85q35 20 77 20q56 0 98 -33q120 -94 120 -159q0 -70 -76 -70q-45 0 -135 50q-106 59 -128 75q-17 13 -17 32zM193 1153q3 60 19 75q22 20 85 20q60 0 86 -15q27 -17 27 -111q0 -42 -2 -97l-24 -607q-1 -26 -24 -49q-28 -29 -62 -29q-32 0 -54 26 q-16 19 -17 43z" />
<glyph unicode="&#x22;" horiz-adv-x="729" vert-adv-y="2457" d="M105 971q0 13 4 33l80 378q4 21 25 38q28 21 59 21q24 0 49 -14q54 -30 54 -68q0 -14 -16 -48l-151 -335q-20 -42 -52 -42q-22 0 -41 16q-11 10 -11 21zM371 965q0 14 4 33l79 378q4 17 20 33q27 26 69 26q50 0 81 -36q17 -20 17 -38q0 -23 -15 -56l-152 -335 q-19 -42 -51 -42q-22 0 -41 16q-11 10 -11 21z" />
<glyph unicode="#" horiz-adv-x="1320" vert-adv-y="2457" d="M45 407q0 85 94 85q31 0 53 -2l114 -10l62 267q-185 9 -222 25q-57 25 -57 79q0 85 94 85q30 0 53 -2l171 -15l53 233q16 85 52 101q18 7 40 7q39 0 71 -20q40 -25 40 -60q0 -10 -63 -259l-5 -19l210 -18l57 260q14 84 51 100q18 8 41 8q37 0 70 -20q40 -24 40 -60 q0 -9 -60 -258l-13 -47q120 -7 174 -17q78 -15 78 -62q0 -67 -114 -67h-14q-21 1 -114 2h-48l-80 -293l74 -7q168 -12 203 -25q50 -17 50 -54q0 -68 -115 -66q-19 0 -128 1l-117 2l-7 1l-84 -311q-14 -51 -54 -72q-16 -8 -32 -8q-54 0 -54 71q0 21 4 41l62 285l-250 11 l-90 -318q-22 -79 -86 -79q-54 0 -54 70q0 22 5 42l66 292q-129 8 -164 22q-57 25 -57 79zM472 465l238 -21l62 285q-7 1 -17 1q-7 1 -107 5l-99 4z" />
<glyph unicode="$" horiz-adv-x="1328" vert-adv-y="2457" d="M168 1056q0 88 17 114q21 32 100 32q25 0 43 -2l134 -12q-8 53 -12 80q-8 63 -12 80q-9 43 -9 63q0 35 31 57q32 23 76 23q31 0 54 -14q31 -19 38 -102l30 -205l116 -10q199 -18 250 -24q155 -20 155 -89q0 -56 -92 -56q-56 0 -137 6l-269 18l48 -326l191 -10 q165 -9 191 -43q16 -21 16 -61q0 -13 -1 -39q-3 -40 -7 -245q-5 -217 -11 -240q-17 -61 -87 -61h-9l-181 7l17 -113q2 -13 2 -25q0 -82 -56 -82q-23 0 -43 15q-32 25 -41 72l-26 138l-186 7q-178 7 -243 30q-36 12 -36 48q0 41 39 58q50 23 194 23q20 0 72 -2l130 -5 l-69 367l-158 9q-194 28 -207 37q-38 22 -43 103q-9 141 -9 379zM365 770q0 -30 7 -42q10 -21 84 -24l97 -6l-62 330l-68 5l-8 1q-51 6 -50 -45v-219zM755 517l53 -362l114 -5l7 356z" />
<glyph unicode="%" horiz-adv-x="1843" vert-adv-y="2457" d="M135 1179q0 47 27 68q24 18 89 18q9 0 20 -1l190 -11q239 -18 275 -42q39 -25 39 -95l-5 -112l1 -123q-5 -143 -9 -158q-14 -42 -78 -45l-298 -17q-62 -3 -138 -3t-88 43q-6 23 -15 233q-10 239 -10 245zM317 1069l3 -122l6 -112q1 -31 58 -31l24 1l190 6l2 228 q0 18 1 31v8q0 10 -4 13q-4 2 -49 5l-202 15h-7q-15 1 -18.5 -3.5t-3.5 -26.5v-12zM352 -26q0 32 22 65l755 1177q39 80 87 80q52 0 91 -38q25 -25 25 -54q0 -15 -19 -48q-7 -13 -139 -214l-680 -965q-38 -54 -86 -54q-56 0 -56 51zM968 455q0 47 27 68q23 18 89 18h20 l190 -12q240 -18 276 -41q42 -28 39 -96l-5 -111v-123q-4 -143 -9 -158q-13 -42 -78 -46l-298 -16q-69 -4 -137 -4q-77 0 -89 43q-6 23 -15 233q-10 239 -10 245zM1150 345l3 -121l6 -113q1 -30 59 -30h23l190 6l2 228q0 16 1 31v8q0 11 -4 13q-4 3 -49 6l-202 14 q-23 2 -27 -4q-2 -4 -2 -26v-12z" />
<glyph unicode="&#x26;" horiz-adv-x="1363" vert-adv-y="2457" d="M119 258q0 136 89 225q69 69 227 151q-76 86 -108 136q-49 78 -49 147q0 120 106 204q98 78 241 78q157 0 251 -92q79 -77 79 -186q0 -83 -37 -134q-62 -87 -230 -175l242 -264q23 59 36 130q12 64 81 64q37 0 64 -25q21 -21 21 -52q0 -117 -80 -248l129 -144 q30 -33 30 -59q0 -36 -30 -59q-26 -21 -62 -21q-45 0 -84 43l-93 101q-64 -54 -104 -81q-130 -91 -302 -91q-206 0 -321 113q-96 95 -96 239zM302 252q0 -95 61 -141q73 -53 181 -53q109 0 211 70q35 23 82 65l-306 337q-88 -51 -139 -94q-90 -75 -90 -184zM458 922 q0 -36 12 -62t49 -69q15 -18 70 -75l13 7q72 41 119 81q59 50 59 117q0 63 -51 105q-44 35 -112 35q-76 0 -120 -43q-39 -38 -39 -96z" />
<glyph unicode="'" horiz-adv-x="669" vert-adv-y="2457" d="M201 974q0 12 4 33l80 378q4 21 25 38q27 21 59 21q24 0 49 -14q54 -30 54 -68q0 -14 -16 -48l-151 -335q-20 -42 -52 -42q-22 0 -41 16q-11 10 -11 21z" />
<glyph unicode="(" horiz-adv-x="729" vert-adv-y="2457" d="M210 546q0 382 204 732q57 98 89 125q23 19 47 19q32 0 55 -21q15 -13 15 -29q0 -38 -35 -99q-44 -78 -95 -217q-91 -251 -91 -500q0 -259 106 -531q46 -116 74 -172q42 -81 42 -104q0 -14 -9 -26q-22 -30 -66 -30h-1q-34 0 -74 49q-66 85 -136 246q-125 290 -125 558z " />
<glyph unicode=")" horiz-adv-x="729" vert-adv-y="2457" d="M101 -251q0 23 42 104q35 68 88 209q92 244 92 494q0 265 -106 538q-44 115 -80 179q-35 61 -35 99q0 18 19 33q22 17 50 17q37 0 78 -53q72 -91 138 -246q125 -291 125 -577q0 -269 -125 -558q-70 -162 -136 -246q-40 -49 -74 -49h-1q-44 0 -66 30q-9 12 -9 26z" />
<glyph unicode="*" horiz-adv-x="1117" vert-adv-y="2457" d="M100 787q0 34 24 60q26 30 61 30q24 0 57 -15l245 -106l-18 268l-1 16l-2 11l2 9q18 77 86 77q36 0 63 -29q14 -15 17 -30l7 -28l-1 -13v-4v-2v-7l-21 -266l263 108q32 13 51 13q32 0 57 -29q20 -24 20 -55q0 -69 -83 -89l-272 -66l180 -215q33 -40 33 -72q0 -35 -26 -62 q-26 -26 -61 -26q-50 0 -83 57l-143 247l-150 -251q-33 -56 -84 -56q-40 0 -67 33q-20 26 -20 57q0 32 34 73l180 212l-264 62q-84 19 -84 88z" />
<glyph unicode="+" horiz-adv-x="1282" vert-adv-y="2457" d="M83 657q0 36 25 64q33 39 93 39h14l324 -32v319q0 75 22 93q25 20 95 20q38 0 66 -14q34 -17 34 -80q0 -64 -8 -191l-12 -165l208 -20q162 -15 194 -29q48 -21 48 -60q0 -66 -110 -66h-22q-234 3 -329 8l-29 -430q-3 -50 -45 -79q-22 -16 -43 -16q-32 0 -54 35 q-15 25 -15 55v444q-185 8 -200 9q-151 6 -194 19q-62 20 -62 77z" />
<glyph unicode="," horiz-adv-x="492" vert-adv-y="2457" d="M77 257q0 26 25 59q42 57 95 57q54 0 124 -41q97 -58 97 -114q0 -71 -64 -231q-46 -114 -115 -114q-23 0 -39 16q-25 23 -25 55q0 8 3 20q49 171 49 193q0 9 -19 13q-62 14 -108 50q-23 18 -23 37z" />
<glyph unicode="-" horiz-adv-x="1282" vert-adv-y="2457" d="M78 667q0 40 23 69q20 26 63 26q25 0 51 -2l729 -70q162 -15 194 -29q48 -21 48 -60q0 -68 -110 -66q-18 0 -123 1q-92 1 -614 25q-156 7 -194 20q-67 22 -67 86z" />
<glyph unicode="." horiz-adv-x="492" vert-adv-y="2457" d="M77 160q0 49 61 85q35 20 77 20q55 0 98 -34q120 -93 120 -158q0 -70 -76 -70q-45 0 -135 50q-106 60 -128 76q-17 12 -17 31z" />
<glyph unicode="/" horiz-adv-x="909" vert-adv-y="2457" d="M220 -59q0 22 6 46l326 1244q17 84 54 99q16 6 36 6q41 0 74 -22q38 -26 38 -59q0 -11 -69 -259l-324 -1046q-24 -76 -87 -76q-54 0 -54 67z" />
<glyph unicode="0" horiz-adv-x="1162" vert-adv-y="2457" d="M98 961q0 110 23 143q30 44 123 44h19l367 -22q239 -24 285 -32q84 -15 118 -59q38 -51 38 -161q0 -26 -4 -97q-12 -141 -12 -268l-3 -76l-3 -188q-6 -189 -12 -208q-18 -58 -102 -61l-521 -22q-128 -5 -168 -5q-88 0 -121 45q-16 22 -17 72l-4 627q-6 255 -6 268z M304 923l1 -234l11 -506q2 -63 59 -63q28 0 58 1l401 18l27 719q3 77 -123 84l-323 19l-41 1q-46 0 -58 -6.5t-12 -32.5z" />
<glyph unicode="1" horiz-adv-x="644" vert-adv-y="2457" d="M227 1053q0 64 23 85q25 23 93 23q49 0 77 -21q25 -18 25 -74q0 -76 -9 -215l-51 -827q-3 -54 -45 -86q-22 -17 -44 -17q-21 0 -38 18q-30 33 -30 80v1018q-1 13 -1 16z" />
<glyph unicode="2" horiz-adv-x="1140" vert-adv-y="2457" d="M56 1068q0 45 47 73q22 13 72 13q61 0 352 -24l357 -21q113 -7 136 -21q34 -20 34 -84q0 -423 -20 -477q-16 -46 -73 -56q-32 -6 -106 -6q-36 0 -67 1l-482 22l-2 -368l439 -23q194 -10 212 -14q90 -16 90 -72q0 -39 -47 -52q-37 -10 -297 -10l-23 1l-469 10 q-88 2 -104 70q-5 20 -10 231l-3 182q-4 96 -4 111q0 56 19 82q23 30 80 30q27 0 119 -5l483 -28h10q26 0 36 8q10 10 10 39l1 233q0 19 -9 29q-9 12 -53 15l-526 30q-133 6 -142 9q-60 16 -60 72z" />
<glyph unicode="3" horiz-adv-x="1136" vert-adv-y="2457" d="M42 1072q0 33 50 60q23 13 77 18q71 6 86 5l259 -21l357 -21q112 -7 136 -21q33 -20 33 -82l-2 -125q-6 -813 -10 -846q-8 -66 -56 -83q-35 -12 -128 -12q-41 0 -69 1l-539 19q-139 4 -163 43q-10 16 -10 38q0 34 20 58q12 16 26 21q26 10 97 10l33 -1l537 -21h8 q29 0 37 8q11 10 11 39v327l-347 16q-127 7 -277 28q-84 12 -84 59q0 71 124 71l184 -6l400 -9l1 272q0 19 -9 29q-9 12 -53 15l-526 30q-137 6 -150 11q-53 19 -53 70z" />
<glyph unicode="4" horiz-adv-x="1151" vert-adv-y="2457" d="M108 976q0 52 28 83q25 29 59 29q45 0 78 -45q28 -38 28 -159v-7v-4l-5 -296l556 -16v303q0 197 11 239q20 70 82 70q52 0 86 -48q27 -37 27 -121l-8 -552q0 -27 1 -138q1 -74 1 -113q0 -196 -33 -245q-22 -34 -65 -34q-37 0 -60 24q-16 16 -20 34q-7 35 -8 129l-4 294 q-130 -1 -219 -1q-140 0 -251 6q-104 6 -145 4q-100 -4 -119 32q-15 26 -18 58q-1 4 -1 148z" />
<glyph unicode="5" horiz-adv-x="1143" vert-adv-y="2457" d="M80 38q0 41 42 59q52 22 205 22q39 0 75 -1l421 -16l7 356l-464 31q-205 28 -219 36q-40 23 -46 103q-9 134 -9 404q0 73 25 99q22 23 100 23q20 0 44 -2l352 -28l182 -18q150 -15 183 -23q101 -26 101 -77q0 -57 -96 -57q-48 0 -146 6l-476 30h-6q-55 0 -55 -44l1 -219 q0 -45 20 -54q21 -10 75 -13l425 -24q177 -11 203 -44q16 -20 16 -60q0 -13 -1 -39q-3 -52 -7 -245q-4 -187 -7 -212q-7 -92 -107 -89l-543 19q-189 6 -257 29q-38 13 -38 48z" />
<glyph unicode="6" horiz-adv-x="1149" vert-adv-y="2457" d="M79 1024q0 74 18 100q22 31 112 31q24 0 40 -1l401 -28l181 -18q172 -17 224 -36q60 -23 60 -66q0 -55 -96 -55q-40 0 -146 6l-524 30h-7q-54 3 -54 -44l1 -261l569 -33q176 -11 202 -44q16 -20 16 -63q0 -10 -1 -36q-3 -66 -7 -269q-4 -187 -6 -212q-8 -92 -108 -89 l-591 19q-170 11 -200 15t-42 15q-22 23 -29 95q-3 618 -11 846q-2 68 -2 98zM304 163q0 -24 12 -38q10 -11 74 -13l470 -16l7 380l-513 31l-47 3z" />
<glyph unicode="7" horiz-adv-x="1147" vert-adv-y="2457" d="M67 1076q0 73 130 73q57 0 344 -24l358 -21q105 -7 132 -27q37 -28 37 -81q0 -81 -107 -632q-64 -334 -98 -388q-27 -44 -66 -44q-27 0 -48 27q-27 34 -27 80q0 8 1 19l115 794q3 21 3 44q0 34 -11 42q-14 10 -65 13l-493 31q-124 7 -162 30q-43 25 -43 64z" />
<glyph unicode="8" horiz-adv-x="1142" vert-adv-y="2457" d="M85 1024q0 73 18 100q22 31 111 31q27 0 41 -1l365 -28q234 -23 284 -32q93 -17 121 -44q29 -27 31 -102q1 -32 1 -80q0 -21 -1 -91l-11 -207v-61l-3 -76l-4 -187q-5 -187 -7 -212q-8 -92 -107 -89l-555 19q-181 12 -192 13q-47 6 -63 35q-11 21 -16 77q-2 575 -11 837 q-2 67 -2 98zM309 943l1 -258l517 -33q15 -1 20 -2l3 232q1 74 -69 78l-411 27h-6q-55 3 -55 -44zM310 172q0 -24 12 -38q10 -11 74 -13l434 -16l6 374l-476 31l-47 3z" />
<glyph unicode="9" horiz-adv-x="1170" vert-adv-y="2457" d="M80 32q0 41 42 59q52 22 205 22q35 0 75 -1l464 -16l7 356l-507 31q-181 11 -223 40q-39 26 -43 126q-8 208 -8 376q0 73 25 99q22 23 100 23q16 0 44 -2l352 -28q293 -23 363 -35t90 -30q26 -24 29 -96q-14 -262 -14 -393q0 -63 -3 -157l-4 -169q-4 -187 -6 -212 q-8 -92 -107 -89l-586 19q-188 6 -257 29q-38 13 -38 48zM315 934l1 -218q0 -29 7 -43q9 -18 88 -24l457 -33l8 235q1 25 1 27q0 35 -6 50q-8 20 -104 26l-390 24h-8q-54 0 -54 -44z" />
<glyph unicode=":" horiz-adv-x="526" vert-adv-y="2457" d="M77 160q0 49 61 85q35 20 77 20q55 0 98 -34q120 -93 120 -158q0 -70 -76 -70q-45 0 -135 50q-106 60 -128 76q-17 12 -17 31zM91 809q0 49 61 85q34 20 76 20q55 0 98 -34q120 -94 120 -158q0 -70 -75 -70q-46 0 -136 50q-106 60 -127 75q-17 13 -17 32z" />
<glyph unicode=";" horiz-adv-x="496" vert-adv-y="2457" d="M63 766q0 49 61 85q35 20 77 20q56 0 98 -33q120 -94 120 -159q0 -70 -76 -70q-45 0 -135 50q-107 60 -128 76q-17 12 -17 31zM77 257q0 26 25 59q41 57 95 57q55 0 124 -41q97 -58 97 -114q0 -71 -64 -231q-46 -114 -115 -114q-23 0 -39 16q-25 23 -25 55q0 8 3 20 q49 171 49 193q0 9 -19 13q-62 14 -108 50q-23 18 -23 37z" />
<glyph unicode="&#x3c;" horiz-adv-x="1554" vert-adv-y="2457" d="M151 643q0 29 18 58q16 28 108 68l929 405q45 20 108 20q74 0 74 -73q0 -26 -14 -46q-22 -30 -115 -69q-20 -9 -84 -38q-25 -12 -444 -193l-303 -130q146 -69 358 -157q81 -34 171 -74q119 -52 154 -67q171 -70 203 -90q83 -50 83 -97q0 -66 -101 -66q-43 0 -84 18 l-938 403q-123 53 -123 128z" />
<glyph unicode="=" horiz-adv-x="1587" vert-adv-y="2457" d="M70 427q0 39 26 68q34 37 99 37q8 0 19 -1l925 -90q324 -32 324 -124q0 -66 -105 -66q-166 0 -503 29q-403 35 -470 37q-193 4 -243 22q-72 25 -72 88zM90 883q0 39 26 67q34 38 100 38q5 0 18 -1l925 -90q324 -32 324 -124q0 -66 -105 -66q-166 0 -503 29 q-405 35 -470 37q-193 4 -243 22q-72 25 -72 88z" />
<glyph unicode="&#x3e;" horiz-adv-x="1551" vert-adv-y="2457" d="M149 160q0 31 36 63q37 33 81 53q49 22 169 71q36 15 153 67q91 40 272 115q112 47 258 116l-304 130q-421 182 -444 193q-64 29 -84 38q-98 41 -118 75q-11 18 -11 40q0 73 74 73q64 0 108 -20l930 -405q93 -41 111 -74q14 -26 14 -52q0 -75 -122 -128l-938 -403 q-42 -18 -85 -18q-100 0 -100 66z" />
<glyph unicode="?" horiz-adv-x="1124" vert-adv-y="2457" d="M36 1210q0 66 101 66q76 0 371 -24l357 -21q113 -7 136 -21q34 -20 34 -94l-2 -113q-12 -284 -14 -303q-10 -67 -64 -86q-31 -11 -53 -10l-172 7l-157 15l-6 -163l-12 -90q-8 -57 -43 -85q-23 -18 -48 -18q-53 0 -67 98l-39 281q-1 100 50 120q22 9 62 13l75 -6 q91 -8 115 -9l112 -6q50 -3 51 66l4 208q0 18 -9 29q-9 12 -53 14l-526 31q-150 8 -186 50q-17 21 -17 51zM301 27q0 50 60 85q35 20 78 20q56 0 98 -33q119 -95 119 -159q0 -70 -75 -70q-46 0 -136 50q-105 59 -127 76q-17 12 -17 31z" />
<glyph unicode="@" horiz-adv-x="1945" vert-adv-y="2457" d="M87 588q0 262 151 498q146 227 400 337q190 83 390 83q249 0 460 -123q181 -104 281 -276q89 -153 89 -330q0 -233 -147 -425q-151 -198 -380 -198q-184 0 -217 134q-119 -121 -261 -121q-147 0 -243 108q-94 105 -94 258q0 245 188 418q148 136 324 136q148 0 229 -147 l20 39q22 41 61 70q14 10 25 10q22 0 48 -16q40 -25 40 -72q0 -27 -9 -57l-132 -431q-19 -63 -19 -83q0 -26 25 -48q22 -20 49 -20q71 0 150 76q137 130 137 362q0 296 -243 437q-186 108 -391 108q-188 0 -353 -100q-164 -98 -262 -271q-96 -170 -96 -354q0 -273 192 -451 q101 -94 256 -140q119 -35 250 -35q99 0 210 27q65 16 101 16q77 0 77 -67t-85 -106q-134 -61 -324 -61q-270 0 -499 127q-187 105 -295 292q-103 180 -103 396zM715 538q0 -100 67 -161q52 -47 115 -47q69 0 134 60q64 60 111 210q33 103 33 170q0 65 -44 108 q-45 43 -112 43q-94 0 -176 -77q-65 -60 -100 -155q-28 -77 -28 -151z" />
<glyph unicode="A" horiz-adv-x="1411" vert-adv-y="2457" d="M96 21q0 29 6 58l193 936q22 106 57 128q37 23 88 23q166 0 495 -57q83 -15 112 -19q63 -8 81 -24q24 -20 35 -96l131 -918q2 -11 2 -23q0 -60 -38 -92q-25 -21 -58 -21t-55 21q-27 25 -53 139l-69 302l-617 40l-120 -393q-21 -70 -71 -99q-22 -13 -43 -13q-76 0 -76 108 zM444 595l567 -48q-75 302 -87 327q-13 30 -57 38q-149 28 -269 28q-38 0 -52 -12q-12 -11 -21 -43z" />
<glyph unicode="B" horiz-adv-x="1523" vert-adv-y="2457" d="M151 1030q0 74 18 101q21 30 119 30l33 -1l606 -28q64 -3 141 -3q38 0 80 1h21q160 0 208 -43q30 -27 30 -95q0 -23 -6 -80q-24 -218 -27 -269q-7 -95 -31 -128q-28 -38 -117 -38q-52 0 -145 1q6 -44 6 -74q0 -69 -7 -153q-3 -31 -4 -139q0 -107 -26 -133 q-30 -28 -78 -28h-6l-531 19q-181 12 -192 13q-47 6 -63 35q-11 21 -16 77q-2 576 -11 838q-2 67 -2 97zM385 178q0 -25 12 -38q10 -11 74 -13l388 -16l7 374l-440 31l-38 3zM396 949l1 -258l476 -23l258 -12l21 232v7q0 68 -69 71l-625 27h-5h-10q-47 0 -47 -44z" />
<glyph unicode="C" horiz-adv-x="1432" vert-adv-y="2457" d="M158 986q0 86 27 122q30 40 127 40h23l431 -22q76 -4 300 -25q221 -21 221 -95q0 -55 -99 -55l-154 6l-607 24h-6h-2q-37 0 -37 -58q0 -8 1 -17q1 -10 1 -12l17 -356l23 -375q1 -25 13 -38q10 -12 77 -13l450 -12q209 -5 263 -33q36 -18 36 -47q0 -25 -21 -38 q-39 -22 -240 -24l-504 -3l-28 -1q-185 0 -229 32q-16 11 -22 24q-11 22 -15 99l-44 812q-2 37 -2 65z" />
<glyph unicode="D" horiz-adv-x="1425" vert-adv-y="2457" d="M142 1068q0 89 111 89q99 0 100 -46q35 16 80 16q121 0 334 -32l349 -52q80 -12 136 -43q33 -19 33 -77l-2 -125q-6 -584 -7 -603q-4 -53 -14.5 -71t-44.5 -30q-31 -12 -224 -54l-498 -73q-45 -6 -90 -8q-27 -39 -61 -39q-17 0 -34 14q-34 28 -40 75l-125 1010 q-3 32 -3 49zM365 974l10 -114l46 -740q41 8 71 13l538 79q46 7 49 13q6 11 6 33l1 589q0 19 -8 30q-8 9 -54 14l-525 60q-70 8 -134 23z" />
<glyph unicode="E" horiz-adv-x="1305" vert-adv-y="2457" d="M120 1012q0 137 131 137h15l22 -1l459 -22l181 -18q152 -15 183 -23q101 -27 101 -77q0 -57 -94 -57l-148 6l-593 24h-5h-3q-34 0 -34 -69v-18l5 -260l463 -11q198 -5 250 -33q37 -20 37 -48q0 -25 -21 -37q-38 -23 -230 -24l-497 -4l1 -314q0 -48 54 -51h27l479 -12 q197 -5 249 -32q37 -20 37 -48q0 -25 -21 -38q-38 -23 -229 -24l-519 -3h-6h-8h-7h-6q-150 0 -209 22q-22 9 -35 29q-15 25 -16 103l-12 812q-1 74 -1 91z" />
<glyph unicode="F" horiz-adv-x="1251" vert-adv-y="2457" d="M122 979q0 92 26 129q28 40 123 40h20l459 -22l180 -18q142 -14 163 -18q121 -26 121 -84q0 -55 -95 -55l-146 6l-593 24h-5h-3q-34 0 -34 -73v-14l17 -260l451 -11q199 -5 251 -33q35 -19 35 -48q0 -25 -20 -37q-39 -23 -230 -24l-485 -4v-307q0 -154 -7 -185 q-18 -76 -66 -76q-32 0 -55 43q-27 50 -45 218l-60 751q-2 25 -2 58z" />
<glyph unicode="G" horiz-adv-x="1336" vert-adv-y="2457" d="M92 985q0 87 26 124q28 40 119 40q8 0 24 -1l516 -33q295 -20 373 -40q101 -26 101 -78q0 -55 -95 -55q-25 0 -147 6l-659 33h-7q-35 0 -35 -70v-17l32 -695q3 -48 54 -51h27l411 -3h81q1 0 35 1l-10 322l-198 13q-87 6 -105 33q-14 21 -14 52q0 44 22 62q21 18 72 18 q17 0 22 -1l291 -29q200 -20 248 -52q33 -21 33 -51q0 -57 -124 -57h-45q1 -18 1 -28t-1 -29l-27 -414q-5 -72 -53 -96q-17 -9 -32 -9q-66 0 -75 117q-67 -2 -107 -3l-429 -3h9h-6h-8h-7h-6q-150 0 -209 23q-22 8 -35 28q-11 19 -16 103l-45 776q-2 35 -2 64z" />
<glyph unicode="H" horiz-adv-x="1459" vert-adv-y="2457" d="M139 1064q0 103 92 103q130 0 126 -70l-2 -40l4 -196l-1 -110l636 -74q27 -4 64 -10v378q-1 127 84 127q45 0 91 -16q46 -15 46 -55l-4 -48l-9 -194l-51 -827q-3 -54 -45 -86q-22 -17 -44 -17q-20 0 -38 18q-30 33 -30 80v490h-7q-138 8 -261 20q-279 29 -339 32 q-80 4 -94 5l-4 -541q0 -54 -40 -88q-23 -20 -46 -20q-19 0 -36 16q-32 31 -35 78l-56 1016q-1 22 -1 29z" />
<glyph unicode="I" horiz-adv-x="726" vert-adv-y="2457" d="M39 1072q0 90 72 90q11 0 22 -1l415 -56q160 -22 160 -105q0 -55 -57 -55q-64 0 -167 8l-5 -145l-49 -710l45 -8q130 -21 130 -104q0 -55 -47 -55q-63 0 -188 14q-135 15 -184 17q-79 3 -101 23q-25 23 -25 76q0 87 59 87q6 0 18 -2l133 -22v848q-33 3 -76 4 q-95 2 -125 23q-30 22 -30 73z" />
<glyph unicode="J" horiz-adv-x="1055" vert-adv-y="2457" d="M68 1071q0 34 18 61q19 30 85 30q12 0 27 -1l573 -56q221 -22 221 -105q0 -55 -84 -55l-25 1q-146 4 -192 7l-1 -153l-28 -772q-3 -69 -50 -84q-23 -7 -75 -7h-80l-177 5q-126 3 -173 27q-27 14 -27 43q0 26 25 42q21 14 121 21l222 15q59 5 56 43v6l-27 828 q-139 8 -195 9q-122 1 -161 19q-53 23 -53 76z" />
<glyph unicode="K" horiz-adv-x="1372" vert-adv-y="2457" d="M114 1039q0 131 109 131q71 0 92 -49q20 -44 22 -310l1 -84l703 338q74 35 120 35q53 0 82 -58q14 -28 14 -56q0 -24 -10 -38q-26 -37 -70 -54l-167 -66l-169 -71q24 -35 206 -351q24 -41 121 -219q57 -104 57 -155q0 -39 -31 -64q-15 -13 -35 -13q-37 0 -79 56 q-31 42 -106 163l-109 169q-103 159 -172 262l-48 70l-305 -127l4 -505q1 -55 -37 -91q-24 -22 -48 -22q-17 0 -35 16q-32 30 -36 79l-73 993q-1 19 -1 21z" />
<glyph unicode="L" horiz-adv-x="1206" vert-adv-y="2457" d="M137 1041q11 78 42 101q29 20 73 20q114 0 114 -121l-8 -178v-700q0 -48 53 -51h28l415 -12q200 -5 251 -33q35 -18 35 -47q0 -25 -21 -38q-37 -22 -229 -24l-455 -3h-6h-8h-7h-7q-150 0 -208 22q-22 9 -35 29q-15 25 -16 103z" />
<glyph unicode="M" horiz-adv-x="1712" vert-adv-y="2457" d="M134 952q0 103 27 142q30 44 124 44q28 0 94 -4q201 -12 467 -21q131 -4 163 -63q15 -29 18 -105l117 -4l116 -4q198 -5 232 -12q64 -14 87 -49q20 -31 20 -142l-19 -616q-4 -120 -52 -177q-22 -25 -48 -25q-27 0 -50 33q-41 57 -41 131v22q0 8 -1 28q-5 105 -5 236 q0 135 7 400l-369 10l-8 -234q-16 -480 -36 -544q-22 -70 -71 -70q-31 0 -56 36q-35 51 -35 128v21q0 9 -1 28q-6 116 -6 271q0 153 8 465v69l-496 17v-863q0 -121 -36 -144q-19 -12 -40 -12q-56 0 -82 51q-13 26 -15 44q-5 43 -12 775z" />
<glyph unicode="N" horiz-adv-x="1471" vert-adv-y="2457" d="M161 1010q0 39 5 66q7 37 41 51q22 10 46 16q63 -2 84.5 -13t78.5 -72q26 -27 176 -200l542 -631l-30 784q-1 7 -1 12v12q0 112 113 112q59 0 88 -29q16 -15 16 -54v-9q0 -14 -1 -217l-20 -803q-2 -88 -84 -88q-42 0 -72 32l-768 810l-17 -696q-2 -103 -42 -141 q-21 -20 -44 -20q-33 0 -59 39q-21 31 -22 69z" />
<glyph unicode="O" horiz-adv-x="1404" vert-adv-y="2457" d="M153 954q0 137 19 165q26 39 126 39h22l498 -32q320 -20 393 -66q36 -23 42 -93q2 -23 2 -99v-91q-12 -141 -12 -268l-3 -76l-3 -188q-6 -189 -12 -208q-18 -58 -102 -61l-654 -22q-161 -5 -181 -5q-80 0 -102 29q-17 23 -23 88l1 174q0 281 -5 453q-6 214 -6 261z M359 923l1 -234l11 -506q2 -63 62 -63q4 0 55 1l540 15l21 722q2 75 -69 79l-559 30h-7q-55 0 -55 -44z" />
<glyph unicode="P" horiz-adv-x="1376" vert-adv-y="2457" d="M117 979q0 92 26 129q28 40 125 40h19l508 -21l190 -19q147 -15 178.5 -21.5t70.5 -29.5q35 -21 35 -61q0 -5 -2 -24q-1 -11 -1 -51l1 -143l2 -202q0 -71 -45 -92q-44 -20 -328 -31l-544 -3v-280v-33q0 -125 -7 -152q-18 -76 -66 -76q-31 0 -55 43q-27 50 -44 218 l-60 751q-3 32 -3 58zM333 908l1 -14l16 -287l705 7v323l-680 44h-3h-6q-34 0 -34 -58q0 -7 1 -15z" />
<glyph unicode="Q" horiz-adv-x="1422" vert-adv-y="2457" d="M162 952q0 139 19 167q26 39 126 39h22l498 -32q320 -20 393 -67q36 -22 42 -92q2 -23 2 -99v-91l-12 -208v-13v-13v-23v-11l-3 -76l-4 -188q-6 -189 -12 -209q-18 -57 -101 -60l-121 -4q4 -8 7 -13q33 -60 33 -90q0 -22 -19 -44q-21 -24 -50 -24q-50 0 -106 78 q-38 54 -63 86l-335 -11q-158 -5 -181 -5q-80 0 -102 29q-17 23 -23 88l-1 511q0 40 -3 116q-6 163 -6 259zM368 923l1 -234l11 -506q2 -63 62 -63q9 0 55 1l184 5q-6 6 -9 10q-64 68 -64 115q0 33 21 61q31 40 84 40q41 0 74 -36q43 -46 132 -184l118 4l21 722q2 75 -69 79 l-559 30h-7q-55 0 -55 -44z" />
<glyph unicode="R" horiz-adv-x="1440" vert-adv-y="2457" d="M141 979q0 92 26 129q28 40 125 40h19l508 -21l190 -19q147 -15 178.5 -21.5t70.5 -29.5q35 -21 35 -61q0 -5 -2 -24q-1 -11 -1 -51l1 -143l2 -202q0 -52 -30 -82q-35 -33 -183 -35q-14 0 -61 -2q-20 -1 -61 -2l16 -24l16 -24l88 -133q116 -182 121 -190q25 -44 25 -85 q0 -29 -18 -49q-19 -22 -46 -22q-46 0 -119 85q-6 6 -158 220q-86 121 -133 184l-26 35l-348 -2v-280v-33q0 -125 -7 -152q-18 -76 -66 -76q-31 0 -55 43q-27 50 -44 218l-60 751q-3 32 -3 58zM357 908l1 -14l16 -287l705 7v323l-680 44h-3h-6q-34 0 -34 -58q0 -7 1 -15z " />
<glyph unicode="S" horiz-adv-x="1298" vert-adv-y="2457" d="M122 1009q0 87 18 114q22 31 109 31q16 0 43 -2l449 -31l181 -19q151 -15 184 -23q101 -26 101 -77q0 -57 -96 -57q-36 0 -146 6l-573 34h-6q-55 0 -55 -44v-219q1 -45 22 -54q21 -10 74 -13l491 -24q175 -9 203 -44q16 -20 16 -60q0 -13 -1 -39q-3 -52 -7 -245 q-4 -187 -6 -212q-8 -89 -102 -89h-6l-543 19q-190 6 -257 29q-38 13 -38 48q0 41 41 59q53 22 205 22q40 0 76 -1l421 -16l7 356l-530 31q-206 28 -220 36q-39 23 -45 103q-10 142 -10 381z" />
<glyph unicode="T" horiz-adv-x="1398" vert-adv-y="2457" d="M39 1080q0 33 26 59q32 32 93 32q11 0 17 -1l874 -78q307 -27 307 -107q0 -57 -106 -57q-158 0 -472 25v-162l-20 -771q-2 -51 -42 -82q-23 -17 -44 -17q-31 0 -54 34q-16 24 -17 55l-39 947l1 11q-76 5 -113 8q-88 7 -113 8q-200 10 -229 19q-69 22 -69 77z" />
<glyph unicode="U" horiz-adv-x="1429" vert-adv-y="2457" d="M139 153q0 842 61 957q26 50 79 50q77 0 77 -137v-19l-31 -863l736 -22l1 69l-12 582l-4 209q0 75 31 128q21 35 51 35q65 0 80 -109q5 -37 28 -291q36 -391 36 -606q0 -94 -22 -127q-24 -36 -86 -47q-74 -14 -174 -14l-307 8q-218 6 -310 6h-8q-144 0 -187 36 q-39 32 -39 155z" />
<glyph unicode="V" horiz-adv-x="1365" vert-adv-y="2457" d="M96 1084q0 84 62 84q24 0 52 -16q63 -37 98 -136l308 -870l123 -15l343 927q28 75 89 103q20 9 35 9q18 0 33 -11q26 -20 26 -60q0 -44 -18 -99l-291 -897q-47 -146 -76 -163q-27 -16 -84 -16q-36 0 -248 28q-81 10 -100 27q-24 21 -60 133l-263 826q-29 92 -29 146z" />
<glyph unicode="W" horiz-adv-x="1808" vert-adv-y="2457" d="M137 1084q0 84 58 84q23 0 49 -16q59 -37 92 -136l283 -854l181 799l7 23q16 64 20.5 75.5t14.5 19.5q28 21 73 21q32 0 53 -16q7 -6 24 -61l264 -858l290 893q24 76 82 103q20 9 33 9t25 -6q30 -17 30 -64q0 -42 -15 -100l-230 -866q-37 -137 -69 -163q-26 -21 -67 -21 q-28 0 -163 12q-51 5 -69 21q-29 27 -55 133l-130 521l-84 -507q-31 -184 -137 -184q-27 0 -162 12q-52 5 -68 21q-23 21 -56 133l-246 826q-28 93 -28 146z" />
<glyph unicode="X" horiz-adv-x="1341" vert-adv-y="2457" d="M121 1058q0 39 44 72q35 27 73 27q29 0 66 -29q27 -21 149 -173l220 -275l191 212q140 155 188 181q38 21 69 21q41 0 72 -28q32 -31 32 -79q0 -55 -41 -95l-380 -375l348 -435q31 -39 31 -83q0 -31 -21 -53q-18 -18 -44 -18q-46 0 -80 39l-367 419l-386 -381 q-39 -38 -91 -38q-69 0 -69 69q0 34 25 62l392 436l-369 421q-52 61 -52 103z" />
<glyph unicode="Y" horiz-adv-x="1346" vert-adv-y="2457" d="M96 1066q0 38 44 72q35 27 73 27q29 0 66 -28q14 -11 149 -174l225 -244l233 239q138 142 182 169q35 22 64 22q41 0 71 -30q33 -32 33 -81q0 -56 -42 -92l-442 -380v-43l-20 -531q-1 -23 -23 -43q-27 -25 -62 -25q-32 0 -55 24q-16 17 -17 37l-36 576l-391 402 q-52 61 -52 103z" />
<glyph unicode="Z" horiz-adv-x="1285" vert-adv-y="2457" d="M80 1067q0 86 148 86q26 0 416 -23l358 -21q104 -7 123 -18q49 -29 76 -80q20 -37 20 -66q0 -36 -27 -67q-13 -14 -78 -77l-695 -681l440 -23q193 -10 211 -14q90 -16 90 -72q0 -39 -47 -52q-37 -10 -297 -10l-23 1l-469 10q-68 2 -94 43q-25 39 -36 87q-7 29 -7 34 q0 42 54 94l663 649l74 73q0 2 -136 12l-570 39q-125 8 -162 25q-32 15 -32 51z" />
<glyph unicode="[" horiz-adv-x="710" vert-adv-y="2457" d="M150 -91v1282q0 86 32 122q31 36 108 36h163q51 0 71 -20q23 -24 23 -77q0 -93 -90 -93l-65 1q-52 0 -52 -52v-1116q0 -34 17 -45q15 -8 49 -8l57 2q84 0 84 -93q0 -53 -23 -77q-20 -20 -71 -20h-163q-77 0 -108 36q-32 36 -32 122z" />
<glyph unicode="\" horiz-adv-x="895" vert-adv-y="2457" d="M177 1301q0 39 29 63q33 27 81 27q28 0 48 -11q32 -17 44 -99l263 -1257q5 -24 5 -48q0 -89 -56 -89q-59 0 -89 117l-270 1050q-55 222 -55 247z" />
<glyph unicode="]" horiz-adv-x="712" vert-adv-y="2457" d="M150 -152q0 93 84 93l57 -2q37 0 51 10q15 11 15 43v1116q0 52 -52 52l-65 -1q-90 0 -90 93q0 53 23 77q20 20 71 20h163q77 0 108 -36q32 -36 32 -122v-1282q0 -86 -32 -122q-31 -36 -108 -36h-163q-51 0 -71 20q-23 24 -23 77z" />
<glyph unicode="^" horiz-adv-x="852" vert-adv-y="2457" d="M71 1084q0 42 100 147q80 85 113 107q34 22 81 22h98q59 0 94 -35q158 -157 174 -175q30 -32 30 -59q0 -49 -47 -49q-33 0 -173 87q-109 68 -130 68q-19 0 -53 -20q-10 -6 -55 -32q-41 -23 -96 -56q-21 -13 -30 -18q-6 -3 -7 -4q-42 -25 -60 -25q-39 0 -39 42z" />
<glyph unicode="_" horiz-adv-x="1032" vert-adv-y="2457" d="M8 -73q0 38 23 65q19 22 57 22q19 0 46 -3l650 -67q145 -12 175 -25q43 -17 43 -55q0 -65 -99 -65l-20 1q-183 1 -308 8q-292 16 -332 17q-166 5 -209 40q-26 22 -26 62z" />
<glyph unicode="`" horiz-adv-x="671" vert-adv-y="2457" d="M176 1353q0 24 33 53t70 29q32 0 59 -21q21 -17 26 -38l79 -378q4 -19 4 -33q0 -12 -11 -21q-18 -16 -41 -16q-32 0 -51 42l-152 335q-16 35 -16 48z" />
<glyph unicode="a" horiz-adv-x="1169" vert-adv-y="2457" d="M83 399q0 264 87 336q83 68 334 68q135 0 268 -29q107 -24 138 -79q32 -59 32 -202l-1 -109q0 -110 1 -220q57 -45 133 -106q57 -46 57 -81q0 -38 -39 -38q-90 0 -278 107q-71 -57 -137 -74q-62 -15 -144 -15q-113 0 -262 17q-80 9 -114 46q-75 81 -75 379zM288 421 q0 -9 9 -148q5 -81 70 -109q54 -24 185 -24q49 0 78 5q35 6 68.5 38.5t35.5 61.5q4 79 4 136q0 83 -18 150q-13 47 -44 61q-63 27 -156 27q-140 0 -179 -35q-30 -27 -48 -121q-5 -28 -5 -42z" />
<glyph unicode="b" horiz-adv-x="1077" vert-adv-y="2457" d="M125 977q0 114 4 139q11 67 78 67q26 0 49 -13q52 -31 58 -121l15 -233l4 -50q94 4 151 4q333 0 397 -82q44 -56 50 -174q10 -187 10 -306q0 -134 -72 -195q-38 -33 -121 -39q-30 -3 -132 -3q-72 0 -272 6q-47 -58 -98 -58q-57 0 -74 43q-38 93 -38 620l-4 223v47z M329 360q0 -110 31 -157q29 -43 137 -49q47 -3 61 -5q73 -10 95 -10q73 0 73 91v24v70v57q0 113 -29 147q-36 41 -116 48q-46 4 -96 4q-49 0 -148 -20q-8 -144 -8 -200z" />
<glyph unicode="c" horiz-adv-x="1081" vert-adv-y="2457" d="M85 615q0 95 26 132q29 41 116 41q14 0 29 -1l261 -22q350 -30 397 -42q101 -26 101 -78q0 -55 -96 -55q-39 0 -146 6l-429 23l-9 2q-13 1 -25 -18.5t-11 -36.5q0 -8 3 -33l16 -135l22 -235q3 -27 13 -38q7 -8 74 -13l283 -23q213 -13 251 -34q35 -18 35 -47 q0 -34 -49.5 -48t-172.5 -14l-28 1l-334 8q-161 4 -193 11q-52 11 -70 36q-10 14 -19 107l-42 450q-3 34 -3 56z" />
<glyph unicode="d" horiz-adv-x="1102" vert-adv-y="2457" d="M108 517q0 128 72 175q105 70 333 70q56 0 167 -12l3 82l-4 234v6q0 93 56 125q22 13 45 13q94 0 94 -144l-1 -69q0 -40 10 -158l14 -223l6 -65q19 -338 25 -383q11 -80 28 -124q23 -61 23 -89q0 -26 -25 -42q-13 -9 -30 -9q-83 0 -184 91q-245 -38 -414 -38 q-137 0 -184 128q-15 40 -21 152q-13 205 -13 280zM325 438q0 -26 2 -68q1 -36 1 -47q0 -9 -1 -27q-1 -45 -1 -52q0 -104 75 -104q23 0 88 10q24 4 57 5q97 3 123 16q27 14 27 58l-5 116l1 87q0 125 -5 126q-80 24 -120 24q-21 0 -133 -10q-80 -7 -94 -30q-15 -24 -15 -104z " />
<glyph unicode="e" horiz-adv-x="1075" vert-adv-y="2457" d="M115 641q0 85 25 119q27 35 100 35q10 0 20 -1l398 -29q188 -13 221 -19q87 -17 98 -62q9 -34 9 -95q0 -20 -1 -46l-8 -149q-3 -51 -29 -73q-29 -25 -102 -25q-14 0 -52 2l-484 25v-178q0 -21 9 -32q4 -6 63 -10l54 -3l244 -12q134 -7 151 -9q80 -10 80 -55 q0 -29 -23.5 -40.5t-89.5 -13.5l-30 -1l-410 -5q-147 8 -173 11t-36 11q-19 17 -25 70v37q0 238 -4 359q-5 155 -5 189zM309 463l479 -25h1l3 156v2v5q0 13 -6 17t-43 7l-387 31l-21 1q-19 0 -22 -5t-3 -27z" />
<glyph unicode="f" horiz-adv-x="1104" vert-adv-y="2457" d="M19 612q0 42 23 74q17 24 53 24q23 0 45 -2l164 -18l-14 218q-3 40 -3 62q0 90 26 126q29 41 116 41q12 0 28 -1l159 -13q332 -33 364 -42q101 -26 101 -78q0 -55 -95 -55q-24 0 -146 6l-295 14l-6 1q-36 0 -35 -87l2 -214l275 -30q143 -15 172 -29q42 -21 42 -61 q0 -65 -91 -65h-6q-17 0 -108 1q-81 1 -248 10l-35 2l3 -326l1 -47q0 -133 -22 -177q-19 -37 -52 -37q-31 0 -54 43q-28 50 -45 218l-22 336q-154 7 -212 16q-85 13 -85 90z" />
<glyph unicode="g" horiz-adv-x="1092" vert-adv-y="2457" d="M77 681q0 73 24 98q24 24 99 24q19 0 46 -2l301 -28q196 -21 220 -24q127 -10 168 -35q33 -21 36 -103q-14 -261 -14 -392q0 -63 -3 -157l-4 -154q-4 -186 -6 -212q-5 -50 -33 -68q-33 -21 -68 -21h-6l-365 16q-195 8 -257 29q-38 13 -38 48q0 41 41 59q56 23 203 23 q32 0 78 -2l243 -13l7 341l-398 31q-186 14 -223 40q-39 26 -43 126q-8 207 -8 376zM285 372q1 -30 8 -43q9 -17 88 -24l373 -33l2 235v18q0 39 -9 58q-8 19 -103 27l-298 23l-8 1q-53 0 -53 -44v-218z" />
<glyph unicode="h" horiz-adv-x="1083" vert-adv-y="2457" d="M110 1029q0 56 17 73q29 28 105 28q54 0 79 -29q13 -15 15 -66q1 -7 3 -210l-1 -137l78 -5q29 -2 263 -18q158 -11 206 -24q40 -11 61 -32q21 -23 21 -79q0 -45 -20 -290q-10 -177 -19 -225q-16 -90 -77 -90q-30 0 -54 31q-33 42 -33 105v18l1 381v39l-428 28l-4 -492 q-1 -53 -41 -87q-22 -20 -45 -20q-20 0 -37 16q-32 31 -34 78l-55 977q-1 23 -1 30z" />
<glyph unicode="i" horiz-adv-x="509" vert-adv-y="2457" d="M38 1075q0 49 61 85q35 20 77 20q55 0 98 -34q120 -93 120 -158q0 -70 -76 -70q-45 0 -135 50q-106 60 -128 76q-17 12 -17 31zM138 715q2 61 19 74q24 19 101 19q45 0 70 -13q26 -13 26 -65l-2 -148l-26 -610q-1 -26 -24 -49q-28 -29 -62 -29q-32 0 -54 28 q-16 19 -17 43z" />
<glyph unicode="j" horiz-adv-x="628" vert-adv-y="2457" d="M-14 -278q0 26 24 43q15 10 111 20l151 16q43 4 49 24q4 12 3 24l-25 838q-1 20 -1 28q0 72 35 91q22 13 60 13q45 0 79 -19q27 -15 27 -68v-8q-1 -11 -2 -223l-11 -733q-1 -79 -35 -102q-25 -18 -96 -19l-74 1l-109 4q-122 5 -161 27q-25 15 -25 43zM185 1087 q0 49 61 85q34 20 77 20q55 0 98 -34q120 -94 120 -158q0 -70 -75 -70q-46 0 -136 50q-106 60 -128 76q-17 12 -17 31z" />
<glyph unicode="k" horiz-adv-x="1115" vert-adv-y="2457" d="M144 1046v24q0 61 18 79q29 27 102 27q57 0 81 -30q13 -15 15 -62v-215l-1 -41l125 -3q278 -17 287 -18q99 -7 132 -31q47 -32 47 -102v-253q0 -64 -43 -81q-46 -18 -182 -24q11 -21 67 -131q53 -106 57 -115q26 -53 26 -92q0 -52 -44 -52q-24 0 -50 24q-19 18 -86 118 l-76 108q-71 100 -92 128l-5 7l-174 -1l-6 -270q-1 -53 -41 -87q-23 -19 -46 -19q-19 0 -36 17q-32 31 -34 78zM351 457l418 4v188l-413 14z" />
<glyph unicode="l" horiz-adv-x="741" vert-adv-y="2457" d="M101 996q9 86 48 107q24 14 56 14q51 0 70 -28q19 -30 19 -100l1 -126v-700q-1 -31 14.5 -42t90.5 -15l64 -6q10 -1 95 -6q156 -9 156 -75q0 -24 -18 -37q-24 -15 -61 -18q-56 -4 -140 -6l-134 -3h-5h-8h-6h-5q-132 0 -183 22q-19 9 -30 29q-14 25 -15 103z" />
<glyph unicode="m" horiz-adv-x="1458" vert-adv-y="2457" d="M125 634q0 90 9 115q20 56 108 56q41 0 179 -7q136 -6 306 -11q93 -3 125 -33q26 -26 26 -98v-20q178 -6 328 -9q93 -2 125 -34q25 -24 25 -104q0 -143 -26 -424q-14 -152 -93 -152q-72 0 -72 117q0 17 -1 44l11 350v51l-304 7l-6 -139q-10 -276 -21 -338 q-14 -81 -72 -81q-35 0 -58 31q-22 31 -22 121l-1 508l1 44l-382 19v-595q0 -85 -28 -106q-20 -15 -48 -15q-42 0 -67 29q-17 20 -20 98l-21 509q-1 27 -1 67z" />
<glyph unicode="n" horiz-adv-x="1086" vert-adv-y="2457" d="M134 621q0 85 9 110q19 56 108 56q41 0 179 -7q74 -3 277 -8q184 -4 217 -28q35 -26 35 -109l-2 -39q-21 -530 -32 -591q-14 -82 -72 -82q-79 0 -80 201l-1 442l1 44l-445 19v-523q0 -176 -94 -176q-30 0 -50 27q-23 31 -28 155l-21 437q-1 23 -1 72z" />
<glyph unicode="o" horiz-adv-x="1135" vert-adv-y="2457" d="M135 683q0 61 34 88q32 24 121 24h23l308 -15q298 -15 360 -55q51 -34 51 -116v-12l-7 -147l-3 -205q-6 -189 -12 -208q-18 -57 -102 -61l-449 -22q-110 -5 -180 -5q-90 0 -111 45q-10 23 -13 60q0 6 -14 469zM355 333l7 -150q3 -56 99 -56h27l326 9l6 360v11 q0 64 -10 71q-12 8 -75 11l-324 19h-8q-25 0 -36 -7q-12 -7 -12 -66v-202z" />
<glyph unicode="p" horiz-adv-x="1187" vert-adv-y="2457" d="M121 628q0 93 26 130q36 49 160 49h19l308 -13q144 -9 210 -14q143 -9 174 -22q74 -31 74 -127v-350q0 -67 -43 -87q-42 -20 -327 -30l-366 -4l1 -341q0 -154 -8 -184q-18 -77 -66 -77q-31 0 -54 43q-28 50 -45 218l-60 751q-3 34 -3 58zM337 560q0 -8 1 -16l16 -227 l527 8v280l-502 25l-2 1q-10 3 -23 -7q-17 -14 -17 -55v-9z" />
<glyph unicode="q" horiz-adv-x="1164" vert-adv-y="2457" d="M131 681q0 73 24 98q24 24 99 24q21 0 46 -2l301 -28q196 -21 220 -24q127 -10 168 -35q33 -21 36 -103q-14 -262 -14 -394q0 -65 -3 -156q-8 -267 -37 -371q-17 -63 -59 -87q-14 -7 -24 -7q-21 0 -41 25q-34 43 -39 226l-5 261l-398 31q-186 14 -223 40q-39 26 -43 126 q-8 207 -8 376zM339 372q1 -30 8 -43q9 -17 88 -24l373 -33l2 235v18q0 39 -9 58q-8 19 -103 27l-298 23l-8 1q-53 0 -53 -44v-218z" />
<glyph unicode="r" horiz-adv-x="842" vert-adv-y="2457" d="M112 728q2 62 19 76q24 19 100 19q45 0 71 -13q25 -14 25 -65l-3 -152l-2 -52l313 219l43 32q15 10 35 10q49 0 79 -59q16 -32 16 -66q0 -44 -46 -68l-405 -212q-19 -9 -43 -14l-18 -410q-1 -27 -24 -50q-28 -29 -61 -29t-55 28q-16 19 -17 44z" />
<glyph unicode="s" horiz-adv-x="1036" vert-adv-y="2457" d="M120 684q0 73 16 96q20 30 93 30q14 0 31 -1l330 -24l133 -14q111 -11 136 -18q85 -23 85 -73q0 -56 -85 -56q-29 0 -107 5l-421 25l-4 1q-26 4 -26 -20v-124q0 -25 7 -29q9 -6 50 -9l361 -18q134 -7 158 -38q15 -19 15 -55q0 -11 -1 -30q-6 -115 -7 -268q-1 -72 -13 -96 q-22 -40 -74 -40h-8l-399 15q-144 5 -194 23q-36 13 -36 49q0 40 38 57q42 18 154 18q35 0 59 -1l295 -11l5 219l-377 23q-154 22 -167 29q-35 21 -39 89q-8 121 -8 246z" />
<glyph unicode="t" horiz-adv-x="903" vert-adv-y="2457" d="M18 637q0 39 21 68q16 21 47 21q21 0 40 -2l161 -20l-2 177q7 84 43 107q27 16 64 16q54 0 73 -30q17 -28 18 -98v-128v-68l196 -23q123 -13 149 -25q37 -18 37 -56q0 -65 -84 -65h-18q-148 2 -271 10h-9v-358q0 -31 14 -42q13 -10 69 -15l108 -9q136 -18 147 -25 q29 -18 29 -50q0 -34 -31.5 -45.5t-134.5 -15.5l-161 -6h-5h-6h-6h-5q-120 0 -166 22q-40 20 -41 132l-5 424q-149 8 -196 17q-75 14 -75 87z" />
<glyph unicode="u" horiz-adv-x="1153" vert-adv-y="2457" d="M125 96q0 589 49 673q24 41 74 41q73 0 73 -110v-13l-24 -586l517 -15v35l-9 404q-3 120 -3 144q0 57 28 97q21 31 49 31q67 0 82 -133q43 -387 43 -577q0 -94 -43 -120t-189 -26l-368 10l-84 -1q-123 0 -160 28q-35 26 -35 118z" />
<glyph unicode="v" horiz-adv-x="1082" vert-adv-y="2457" d="M89 713q0 57 59 57q31 0 61 -18q49 -28 69 -79l226 -575l51 -4l272 610q31 70 103 70q70 0 70 -78q0 -28 -13 -57l-260 -591q-45 -102 -51 -106q-18 -15 -65 -15q-148 0 -198 12q-25 7 -38 19q-22 22 -51 96l-215 562q-20 52 -20 97z" />
<glyph unicode="w" horiz-adv-x="1500" vert-adv-y="2457" d="M114 721q0 35 26 56q24 18 56 18q66 0 104 -112l192 -576l138 538l6 16q21 59 29 64q26 16 84 16q83 0 97 -53l107 -419l50 -159l221 598q31 84 87 84q28 0 51 -17q32 -23 32 -70q0 -22 -7 -41l-204 -591q-34 -99 -55 -114q-19 -14 -54 -14q-33 0 -130 8q-42 4 -55 15 q-24 19 -45 92l-104 361l-68 -351q-24 -128 -111 -128q-30 0 -128 8q-42 4 -55 15q-18 15 -45 92l-198 572q-21 62 -21 92z" />
<glyph unicode="x" horiz-adv-x="1042" vert-adv-y="2457" d="M79 14q0 36 25 61l278 276l-243 227q-52 62 -52 104q0 38 44 72q35 27 73 27q29 0 66 -29q14 -10 164 -185l81 -83l79 78q157 163 180 178q34 25 66 25q40 0 70 -30q33 -32 33 -82q0 -55 -41 -91l-250 -219l252 -258q49 -50 49 -97q0 -27 -23 -45q-21 -16 -50 -16 q-47 0 -90 40l-274 257l-277 -242q-45 -39 -94 -39q-33 0 -51 25q-15 20 -15 46z" />
<glyph unicode="y" horiz-adv-x="932" vert-adv-y="2457" d="M92 715q0 35 45 67t94 32q38 0 58 -25q5 -6 33 -67l161 -356l145 361q18 61 47 77q22 12 49 12q53 0 93 -36q26 -25 26 -49q0 -21 -14 -50l-94 -197l-376 -800q-36 -75 -86 -75q-57 0 -57 69q0 23 9 47l184 458q-14 19 -29 43l-275 447q-13 21 -13 42z" />
<glyph unicode="z" horiz-adv-x="1045" vert-adv-y="2457" d="M49 718q0 86 150 86q29 0 69 -3q159 -11 194 -12l229 -10q101 -5 124 -18q50 -30 77 -81q19 -35 19 -62q0 -71 -105 -147l-486 -351l350 -23q194 -10 212 -14q90 -16 90 -72q0 -39 -47 -52q-37 -10 -297 -10l-23 1l-379 10q-68 2 -95 43q-41 64 -41 131q0 48 52 84 l454 319q72 50 75 69q0 2 -1 4q-2 3 -136 12l-291 20q-125 8 -162 24q-32 15 -32 52z" />
<glyph unicode="{" horiz-adv-x="711" vert-adv-y="2457" d="M76 590q0 74 74 96q45 13 77 56q36 50 36 189v204q0 296 228 296h66q55 0 76 -20q23 -24 23 -75q0 -91 -82 -91h-18q-100 0 -100 -107v-237q0 -141 -42 -218q-29 -54 -102 -91q52 -31 78 -64q66 -86 66 -250v-303q0 -111 97 -107q5 0 12 1h5q86 0 86 -93q0 -53 -23 -76 q-21 -21 -77 -21h-65q-228 0 -228 292v277q0 163 -61 217q-23 19 -74 35q-52 16 -52 90z" />
<glyph unicode="|" horiz-adv-x="751" vert-adv-y="2457" d="M248 1310q0 72 11 95q19 39 119 39q48 0 79 -19q32 -20 32 -85l-1 -212l-1 -1344q0 -37 -27 -69q-35 -40 -74 -40q-35 0 -61 37q-20 27 -21 60z" />
<glyph unicode="}" horiz-adv-x="711" vert-adv-y="2457" d="M70 -224q0 93 86 93h5q6 -1 12 -1q97 -4 97 107v303q0 182 79 265q23 24 65 49q-73 37 -102 91q-42 77 -42 218v237q0 107 -100 107h-18q-82 0 -82 91q0 51 23 75q21 20 76 20h66q228 0 228 -296v-204q0 -162 63 -218q23 -19 70 -33q54 -16 54 -90t-74 -97 q-48 -15 -77 -56q-36 -52 -36 -189v-277q0 -292 -228 -292h-65q-56 0 -77 21q-23 23 -23 76z" />
<glyph unicode="~" horiz-adv-x="1102" vert-adv-y="2457" d="M96 1224q0 53 67 113q73 65 162 65q106 0 220 -62l86 -46q66 -36 121 -36q43 0 92 47q42 40 66 40q35 0 62 -29q22 -24 22 -53q0 -55 -75 -113q-82 -63 -171 -59q-107 5 -215 63l-88 47q-51 28 -114 28q-29 0 -46 -13q-22 -16 -46 -39q-30 -29 -59 -29q-38 0 -62 27 q-22 24 -22 49z" />
<glyph unicode="&#xa0;" horiz-adv-x="1024" vert-adv-y="2457" />
<glyph unicode="&#xa4;" vert-adv-y="2457" d="M446 152q0 28 31 59l124 127q-6 8 -11 15q-103 140 -103 318t112 329l-123 126q-30 31 -30 59q0 29 22 50q21 20 49 20q30 0 62 -33l121 -122q152 110 325 110q182 0 322 -106l12 -10l126 128q33 33 63 33q29 0 49 -20q22 -20 22 -51q0 -27 -31 -58l-130 -134 q6 -8 11 -14q96 -131 96 -308q0 -167 -109 -324l132 -135q31 -31 31 -59q0 -29 -22 -50q-21 -20 -50 -20t-62 33l-128 130l-11 -8q-153 -105 -321 -105t-323 107l-123 -124q-32 -33 -62 -33q-28 0 -49 20q-22 20 -22 50zM615 670q0 -182 136 -305q117 -105 274 -105 q182 0 305 136q105 116 105 277q0 177 -136 302q-116 105 -281 105q-174 0 -297 -136q-106 -116 -106 -274z" />
<glyph unicode="&#xa7;" vert-adv-y="2457" d="M579 777q0 137 109 227q35 29 108 67q-96 109 -96 206q0 137 110 230q101 85 243 85q194 0 287 -151q44 -70 44 -153q0 -76 -66 -76q-61 0 -73 81q-11 70 -53 114q-57 59 -149 59q-83 0 -136 -50q-56 -53 -56 -132q0 -86 121 -164l289 -187q109 -70 154 -134 q55 -77 55 -188q0 -155 -108 -242q-39 -32 -116 -62q48 -56 62 -77q50 -76 50 -163q0 -138 -102 -230q-99 -90 -255 -90q-216 0 -310 166q-40 70 -40 133q0 30 19 50q20 20 48 20q64 0 76 -70q11 -62 54 -109q60 -64 156 -64q88 0 143 48q60 53 60 137q0 106 -114 186 l-337 233q-96 67 -136 135q-41 72 -41 165zM709 807q0 -127 118 -209l354 -246q159 85 159 220q0 129 -150 232l-327 222q-41 -27 -64 -45q-90 -75 -90 -174z" />
<glyph unicode="&#xa8;" vert-adv-y="2457" d="M680 1487q0 53 34 87q36 34 87 34q52 0 89 -36q36 -37 36 -86q0 -38 -24 -73q-35 -51 -99 -51q-50 0 -87 36q-36 37 -36 89zM1118 1487q0 53 34 87q36 34 87 34q52 0 89 -36q36 -37 36 -86q0 -38 -24 -73q-35 -51 -99 -51q-50 0 -87 36q-36 37 -36 89z" />
<glyph unicode="&#xad;" horiz-adv-x="1282" vert-adv-y="2457" d="M78 667q0 40 23 69q20 26 63 26q25 0 51 -2l729 -70q162 -15 194 -29q48 -21 48 -60q0 -68 -110 -66q-18 0 -123 1q-92 1 -614 25q-156 7 -194 20q-67 22 -67 86z" />
<glyph unicode="&#xb0;" vert-adv-y="2457" d="M193 1271q0 137 116 208q58 36 131 36q98 0 170 -71q71 -71 71 -173q0 -101 -71 -173q-72 -71 -173 -71q-102 0 -173 71t-71 173zM313 1271q0 -52 36 -88t88 -36q51 0 88 36q36 37 36 88q0 70 -59 105q-30 19 -66 19q-50 0 -87 -36q-36 -36 -36 -88z" />
<glyph unicode="&#xb1;" vert-adv-y="2457" d="M464 51q0 72 88 72h948q87 0 87 -72q0 -71 -87 -71h-948q-88 0 -88 71zM464 857q0 72 88 72h402v402q0 88 71 88q72 0 72 -88v-402h402q88 0 88 -72q0 -71 -88 -71h-402v-402q0 -88 -72 -88q-71 0 -71 88v402h-402q-88 0 -88 71z" />
<glyph unicode="&#xb7;" vert-adv-y="2457" d="M856 668q0 94 80 143q41 25 89 25q67 0 116 -49q50 -50 50 -119q0 -68 -50 -118q-49 -49 -117 -49q-69 0 -119 49q-49 49 -49 118z" />
<glyph unicode="&#xd7;" vert-adv-y="2457" d="M554 270q0 29 32 60l339 339l-339 339q-32 32 -32 61q0 30 21 50q21 21 50 21t61 -32l338 -339l340 339q31 32 60 32q30 0 50 -21q21 -21 21 -50t-32 -61l-339 -339l339 -339q32 -31 32 -60t-21 -50t-50 -21t-60 31l-340 339l-338 -338q-32 -32 -61 -32t-50 21t-21 50z " />
<glyph unicode="&#xe0;" horiz-adv-x="1133" vert-adv-y="2457" d="M89 433q0 270 128 429q121 151 307 151q185 0 294 -128q16 -19 61 -82v106q0 83 68 83t68 -83v-659q0 -129 26 -184q7 -14 25 -39q15 -20 15 -45q0 -36 -28 -58q-19 -15 -43 -15q-37 0 -65 38q-34 47 -45 104q-1 4 -4 24q-2 13 -6 35q-141 -223 -366 -223 q-192 0 -311 143q-124 150 -124 403zM220 438q0 -212 100 -328q80 -92 212 -92q147 0 239 108q101 119 101 327q0 196 -92 312q-93 116 -242 116q-170 0 -252 -143q-66 -114 -66 -300zM331 1375q0 33 24 53q22 19 49 19q30 0 59 -28l192 -188q27 -26 27 -44q0 -35 -31 -35 q-19 0 -45 15l-225 136q-50 30 -50 72z" />
<glyph unicode="&#xe1;" horiz-adv-x="1133" vert-adv-y="2457" d="M89 433q0 270 128 429q121 151 307 151q185 0 294 -128q16 -19 61 -82v106q0 83 68 83t68 -83v-659q0 -129 26 -184q7 -14 25 -39q15 -20 15 -45q0 -36 -28 -58q-19 -15 -43 -15q-37 0 -65 38q-34 47 -45 104q-1 4 -4 24q-2 13 -6 35q-141 -223 -366 -223 q-192 0 -311 143q-124 150 -124 403zM220 438q0 -212 100 -328q80 -92 212 -92q147 0 239 108q101 119 101 327q0 196 -92 312q-93 116 -242 116q-170 0 -252 -143q-66 -114 -66 -300zM451 1187q0 18 27 44l192 188q29 28 59 28q31 0 54 -23q19 -19 19 -50q0 -41 -50 -71 l-224 -136q-28 -16 -46 -16q-31 0 -31 36z" />
<glyph unicode="&#xe8;" horiz-adv-x="1133" vert-adv-y="2457" d="M103 444q0 271 137 423q132 146 335 146q163 0 287 -99q165 -132 165 -386q0 -113 -134 -113h-639q1 -114 23 -176q38 -109 131 -169q77 -50 177 -50q219 0 307 178q22 44 69 44q25 0 42 -14q23 -18 23 -44q0 -68 -74 -151q-127 -144 -354 -144q-244 0 -371 152 q-124 149 -124 403zM258 527h617q0 95 -27 160q-38 95 -116 147q-72 49 -160 49q-127 0 -215 -94q-88 -93 -99 -262zM386 1376q0 33 24 53q20 17 49 17q42 0 68 -41l143 -227q16 -26 16 -44q0 -9 -6 -19q-10 -17 -25 -17q-21 0 -49 27l-186 186q-34 34 -34 65z" />
<glyph unicode="&#xe9;" horiz-adv-x="1133" vert-adv-y="2457" d="M97 444q0 271 137 423q132 146 335 146q163 0 287 -99q165 -132 165 -386q0 -113 -134 -113h-639q1 -114 23 -176q38 -109 131 -169q77 -50 177 -50q219 0 307 178q22 44 69 44q25 0 42 -14q23 -18 23 -44q0 -68 -74 -151q-127 -144 -354 -144q-244 0 -371 152 q-124 149 -124 403zM252 527h617q0 95 -27 160q-38 95 -116 147q-72 49 -160 49q-127 0 -215 -94q-88 -93 -99 -262zM473 1134q0 18 16 44l143 227q27 41 68 41q29 0 49 -17q24 -20 24 -53q0 -31 -34 -65l-186 -186q-28 -27 -49 -27q-15 0 -25 17q-6 10 -6 19z" />
<glyph unicode="&#xea;" horiz-adv-x="1133" vert-adv-y="2457" d="M97 444q0 271 137 423q132 146 335 146q163 0 287 -99q165 -132 165 -386q0 -113 -134 -113h-639q1 -114 23 -176q38 -109 131 -169q77 -50 177 -50q219 0 307 178q22 44 69 44q25 0 42 -14q23 -18 23 -44q0 -68 -74 -151q-127 -144 -354 -144q-244 0 -371 152 q-124 149 -124 403zM252 527h617q0 95 -27 160q-38 95 -116 147q-72 49 -160 49q-127 0 -215 -94q-88 -93 -99 -262zM280 1180q0 21 25 49q26 29 58 69q78 94 103 114q27 21 64 21h86q46 0 84 -45q51 -59 59 -68q104 -117 104 -143q0 -31 -25 -31q-18 0 -56 25l-18 13 q-146 99 -158 106q-17 10 -35 10q-20 0 -99 -52l-87 -57l-28 -18q-41 -27 -52 -27q-25 0 -25 34z" />
<glyph unicode="&#xec;" horiz-adv-x="737" vert-adv-y="2457" d="M164 1380q0 32 24 52q20 17 49 17q42 0 68 -41l144 -227q15 -25 15 -44q0 -9 -6 -19q-10 -17 -25 -17q-21 0 -48 27l-186 186q-35 35 -35 66zM305 11v897q0 88 71 88q72 0 72 -88v-897q0 -88 -72 -88q-71 0 -71 88z" />
<glyph unicode="&#xed;" horiz-adv-x="737" vert-adv-y="2457" d="M265 1134q0 18 16 43l143 228q26 41 68 41q29 0 49 -17q24 -20 24 -53q0 -31 -34 -65l-187 -186q-27 -27 -48 -27q-15 0 -25 17q-6 10 -6 19zM306 11v897q0 88 71 88q72 0 72 -88v-897q0 -88 -72 -88q-71 0 -71 88z" />
<glyph unicode="&#xf2;" horiz-adv-x="1120" vert-adv-y="2457" d="M87 448q0 257 119 406q125 156 352 156q229 0 354 -156q119 -148 119 -414q0 -249 -119 -398q-124 -156 -353 -156t-353 156q-119 150 -119 406zM238 448q0 -173 66 -287q37 -64 103 -104q69 -41 151 -41q116 0 201 76q121 110 121 361q0 171 -66 282q-85 145 -255 145 q-115 0 -199 -77q-122 -109 -122 -355zM355 1383q0 33 24 53q20 17 49 17q42 0 68 -42l143 -227q16 -25 16 -43q0 -9 -6 -19q-10 -17 -25 -17q-21 0 -48 27l-187 186q-34 34 -34 65z" />
<glyph unicode="&#xf3;" horiz-adv-x="1120" vert-adv-y="2457" d="M87 448q0 257 119 406q125 156 352 156q229 0 354 -156q119 -148 119 -414q0 -249 -119 -398q-124 -156 -353 -156t-353 156q-119 150 -119 406zM238 448q0 -173 66 -287q37 -64 103 -104q69 -41 151 -41q116 0 201 76q121 110 121 361q0 171 -66 282q-85 145 -255 145 q-115 0 -199 -77q-122 -109 -122 -355zM448 1127q0 18 16 44l144 227q26 41 67 41q30 0 49 -17q24 -19 24 -53q0 -31 -34 -65l-186 -186q-28 -27 -49 -27q-15 0 -25 17q-6 10 -6 19z" />
<glyph unicode="&#xf7;" vert-adv-y="2457" d="M463 669q0 72 88 72h948q87 0 87 -72q0 -71 -87 -71h-948q-88 0 -88 71zM898 234q0 53 34 87q36 34 87 34q52 0 89 -36q36 -37 36 -86q0 -38 -24 -74q-35 -50 -99 -50q-50 0 -87 36q-36 37 -36 89zM904 1096q0 53 34 87q36 34 87 34q52 0 89 -37q36 -36 36 -85 q0 -38 -24 -74q-35 -50 -99 -50q-50 0 -87 36q-36 37 -36 89z" />
<glyph unicode="&#xf9;" horiz-adv-x="1120" vert-adv-y="2457" d="M152 180v727q0 87 71 87q72 0 72 -87v-659q0 -115 76 -174q66 -51 159 -51q127 0 213 92q93 100 93 286v506q0 87 71 87q72 0 72 -87v-912q0 -87 -72 -87q-71 0 -71 87v132q-71 -102 -106 -134q-104 -92 -257 -92q-135 0 -219 63q-102 75 -102 216zM363 1377q0 32 24 52 q20 17 49 17q42 0 68 -41l143 -227q16 -26 16 -44q0 -9 -6 -19q-10 -17 -25 -17q-21 0 -49 27l-186 186q-34 34 -34 66z" />
<glyph unicode="&#xfa;" horiz-adv-x="1120" vert-adv-y="2457" d="M152 180v727q0 87 71 87q72 0 72 -87v-659q0 -115 76 -174q66 -51 159 -51q127 0 213 92q93 100 93 286v506q0 87 71 87q72 0 72 -87v-912q0 -87 -72 -87q-71 0 -71 87v132q-71 -102 -106 -134q-104 -92 -257 -92q-135 0 -219 63q-102 75 -102 216zM432 1134q1 19 16 44 l144 227q26 41 67 41q29 0 49 -17q24 -20 24 -53q0 -31 -34 -65l-186 -186q-27 -27 -49 -27q-15 0 -25 17q-6 11 -6 19z" />
<glyph unicode="&#xfc;" horiz-adv-x="1120" vert-adv-y="2457" d="M152 180v727q0 87 71 87q72 0 72 -87v-659q0 -115 76 -174q66 -51 159 -51q127 0 213 92q93 100 93 286v506q0 87 71 87q72 0 72 -87v-912q0 -87 -72 -87q-71 0 -71 87v132q-71 -102 -106 -134q-104 -92 -257 -92q-135 0 -219 63q-102 75 -102 216zM256 1266q0 53 34 87 q36 34 87 34q52 0 89 -36q36 -37 36 -86q0 -38 -24 -74q-35 -50 -99 -50q-50 0 -87 36q-36 37 -36 89zM616 1263q0 53 34 87q35 34 87 34t89 -36q36 -37 36 -86q0 -38 -25 -74q-34 -50 -98 -50q-50 0 -87 36q-36 37 -36 89z" />
<glyph unicode="&#x2000;" horiz-adv-x="804" vert-adv-y="0" />
<glyph unicode="&#x2001;" horiz-adv-x="1608" vert-adv-y="0" />
<glyph unicode="&#x2002;" horiz-adv-x="804" vert-adv-y="0" />
<glyph unicode="&#x2003;" horiz-adv-x="1608" vert-adv-y="0" />
<glyph unicode="&#x2004;" horiz-adv-x="536" vert-adv-y="0" />
<glyph unicode="&#x2005;" horiz-adv-x="402" vert-adv-y="0" />
<glyph unicode="&#x2006;" horiz-adv-x="268" vert-adv-y="0" />
<glyph unicode="&#x2007;" horiz-adv-x="268" vert-adv-y="0" />
<glyph unicode="&#x2008;" horiz-adv-x="201" vert-adv-y="0" />
<glyph unicode="&#x2009;" horiz-adv-x="321" vert-adv-y="0" />
<glyph unicode="&#x200a;" horiz-adv-x="89" vert-adv-y="0" />
<glyph unicode="&#x2010;" horiz-adv-x="1282" vert-adv-y="2457" d="M78 667q0 40 23 69q20 26 63 26q25 0 51 -2l729 -70q162 -15 194 -29q48 -21 48 -60q0 -68 -110 -66q-18 0 -123 1q-92 1 -614 25q-156 7 -194 20q-67 22 -67 86z" />
<glyph unicode="&#x2011;" horiz-adv-x="1282" vert-adv-y="2457" d="M78 667q0 40 23 69q20 26 63 26q25 0 51 -2l729 -70q162 -15 194 -29q48 -21 48 -60q0 -68 -110 -66q-18 0 -123 1q-92 1 -614 25q-156 7 -194 20q-67 22 -67 86z" />
<glyph unicode="&#x2012;" horiz-adv-x="1282" vert-adv-y="2457" d="M78 667q0 40 23 69q20 26 63 26q25 0 51 -2l729 -70q162 -15 194 -29q48 -21 48 -60q0 -68 -110 -66q-18 0 -123 1q-92 1 -614 25q-156 7 -194 20q-67 22 -67 86z" />
<glyph unicode="&#x2013;" horiz-adv-x="1198" vert-adv-y="2457" d="M78 667q0 40 21 69q19 26 58 26q24 0 48 -2l673 -70q150 -15 180 -29q44 -21 44 -60q0 -68 -102 -66q-16 0 -113 1q-85 1 -568 25q-144 7 -179 20q-62 22 -62 86z" />
<glyph unicode="&#x2014;" vert-adv-y="2457" d="M102 643q0 53 30 80q27 23 99 23h1585q79 0 106 -30q23 -27 23 -73q0 -54 -30 -80q-27 -23 -99 -23h-1585q-79 0 -105 30q-24 27 -24 73z" />
<glyph unicode="&#x2018;" vert-adv-y="2457" d="M1403 1173q0 72 64 232q46 114 115 114q23 0 40 -16q24 -23 24 -55q0 -8 -3 -20q-49 -177 -49 -193q0 -9 19 -13q62 -14 108 -50q23 -18 23 -36q0 -27 -25 -60q-41 -57 -95 -57q-55 0 -124 41q-97 58 -97 113z" />
<glyph unicode="&#x2019;" vert-adv-y="2457" d="M346 1426q0 26 25 59q42 57 95 57q54 0 124 -41q97 -58 97 -114q0 -71 -64 -231q-46 -114 -115 -114q-23 0 -39 16q-25 23 -25 55q0 8 3 20q49 171 49 193q0 9 -19 13q-62 14 -108 50q-23 18 -23 37z" />
<glyph unicode="&#x201c;" vert-adv-y="2457" d="M1016 1195q0 72 64 232q46 114 115 114q23 0 40 -16q24 -23 24 -55q0 -8 -3 -20q-49 -178 -49 -194q0 -9 19 -13q62 -14 108 -50q23 -18 23 -36q0 -27 -25 -60q-41 -57 -95 -57t-124 41q-97 58 -97 114zM1372 1198q0 72 64 232q46 114 115 114q23 0 40 -16q24 -23 24 -55 q0 -8 -3 -20q-49 -178 -49 -194q0 -9 19 -13q62 -14 109 -50q23 -18 23 -36q0 -27 -25 -60q-41 -57 -96 -57q-53 0 -123 41q-98 58 -98 114z" />
<glyph unicode="&#x201d;" vert-adv-y="2457" d="M314 1441q0 26 25 59q42 57 95 57q54 0 124 -41q97 -58 97 -114q0 -71 -64 -231q-46 -114 -115 -114q-23 0 -39 16q-25 23 -25 55q0 8 3 20q49 171 49 193q0 9 -19 13q-62 14 -108 50q-23 18 -23 37zM682 1441q0 26 25 59q42 57 96 57q53 0 123 -41q98 -57 98 -114 q0 -72 -64 -231q-47 -114 -116 -114q-23 0 -39 16q-25 23 -25 55q0 8 4 20q49 169 49 193q0 9 -19 13q-62 14 -109 50q-23 18 -23 37z" />
<glyph unicode="&#x2026;" vert-adv-y="2457" d="M201 670q0 78 67 119q34 21 75 21q57 0 98 -41t41 -100q0 -58 -41 -99t-100 -41q-58 0 -99 41t-41 100zM884 670q0 79 67 119q34 21 75 21q57 0 98 -41t41 -100q0 -58 -41 -99t-100 -41q-58 0 -99 41t-41 100zM1566 670q0 79 67 119q34 21 75 21q57 0 98 -41t41 -100 q0 -58 -41 -99t-100 -41q-58 0 -99 41t-41 100z" />
<glyph unicode="&#x202f;" horiz-adv-x="321" vert-adv-y="0" />
<glyph unicode="&#x205f;" horiz-adv-x="402" vert-adv-y="0" />
<glyph unicode="&#x20ac;" vert-adv-y="2457" d="M280 820q0 54 36 85q19 17 50 17h8l616 -53q163 -15 194 -19.5t52 -15.5q32 -17 32 -57q0 -48 -44 -59q-29 -7 -204 -7q-61 0 -509 12q-129 4 -166 13q-65 17 -65 84zM301 512q0 71 50 95q20 9 44 7l616 -52q164 -16 194.5 -20.5t50.5 -15.5q33 -17 33 -57q0 -48 -44 -59 q-29 -7 -204 -7q-61 0 -509 12q-129 4 -166 13q-65 17 -65 84zM536 1074q0 85 27 122q29 40 126 40q10 0 24 -1l431 -21q76 -4 300 -25q220 -21 220 -96q0 -55 -99 -55l-153 6l-607 24l-6 1q-16 2 -24 -11q-16 -25 -13 -76l16 -357l23 -374q2 -26 13 -38t78 -14l450 -11 q209 -6 263 -33q36 -18 36 -47q0 -26 -21 -38q-39 -23 -240 -24l-504 -4h-29q-184 0 -229 32q-16 11 -22 24q-10 22 -14 99l-44 811q-2 30 -2 66z" />
<glyph unicode="&#x25fc;" horiz-adv-x="780" vert-adv-y="1560" d="M0 0v780h780v-780h-780z" />
</font>
</defs>
</svg>
